<svg xmlns="http://www.w3.org/2000/svg" width="60" height="60" viewBox="0 0 60 60" fill="none">
  <rect width="60" height="60" rx="30" fill="#F9EFEC"/>
  <path d="M46.7252 37.4699C47.0326 35.7324 47.7652 31.0267 44.1534 26.0287C40.5415 21.0306 35.9266 20.9118 34.3552 21.0218C32.7838 21.1318 28.2591 20.9552 25.6535 22.2423C23.0479 23.5294 19.2903 27.2243 18.2927 33.1269C17.2951 39.0295 18.9579 42.7344 21.6093 45.7818C24.2607 48.8292 28.6018 49.1006 30.7952 48.9765C32.9886 48.8524 36.3596 48.9994 40.7685 46.555C45.1774 44.1106 46.4179 39.2073 46.7252 37.4699Z" fill="#F3D0C6"/>
  <path d="M46.9621 35.8276C47.3255 33.8057 48.1917 28.3297 43.9214 22.5136C39.6511 16.6974 34.1948 16.5592 32.3369 16.6872C30.479 16.8152 25.1294 16.6097 22.0488 18.1074C18.9682 19.6052 14.5255 23.905 13.346 30.7737C12.1666 37.6424 14.1325 41.9538 17.2673 45.5C20.402 49.0462 25.5347 49.3621 28.1279 49.2176C30.7211 49.0732 34.7067 49.2442 39.9194 46.3998C45.1321 43.5553 46.5987 37.8494 46.9621 35.8276Z" stroke="#CE733F" stroke-width="2"/>
  <path d="M29.2673 17C29.434 15.8333 29.9673 13.2 30.7673 12" stroke="#CE733F" stroke-width="2"/>
  <path d="M24 11C26.4762 11.7546 32.5429 12.8111 37 11" stroke="#CE733F" stroke-width="2"/>
  <path d="M33.4043 44.2078C38.5735 43.0262 42 37 42.5 31.5" stroke="#CE733F" stroke-width="2"/>
</svg>